<svg xmlns="http://www.w3.org/2000/svg" xmlns:xlink="http://www.w3.org/1999/xlink" version="1.1" viewBox="0 0 2300 800" style="background: #111111"><defs><style>@import url(https://fonts.googleapis.com/css?family=Open+Sans:400,700);</style></defs><defs joint-selector="defs"></defs><g joint-selector="layers"  transform="matrix(1,0,0,1,0,0)"><g ></g><g ><!--z-index:1--><!--z-index:2--><!--z-index:3--><!--z-index:4--><!--z-index:5--><!--z-index:6--><!--z-index:7--><g   id="j_130"  transform="translate(20,763.6)"><g id="v-1536"><text  id="v-1537" font-size="22px" xml:space="preserve" y="0.8em" font-weight="normal" text-anchor="start" fill="#777777" pointer-events="none" display="block" font-family="Open Sans"><tspan dy="0"  display="block">Monday, September 23, 2024 at 4:02 AM Western Indonesia Time</tspan></text></g></g><!--z-index:8--><g   id="j_129"  transform="translate(20,720.4)"><g id="v-1534"><text  id="v-1535" font-size="36px" xml:space="preserve" y="0.8em" font-weight="normal" text-anchor="start" fill="#bbbbbb" pointer-events="none" display="block" font-family="Open Sans"><tspan dy="0"  display="block">[System Context] Supagen</tspan></text></g></g><!--z-index:9--><g   id="j_131"  transform="translate(199,200)" style=""><g  id="v-1541" style="opacity: 1;"><rect  x="0" y="160" width="400" height="240" rx="70" id="v-1543" stroke="#054a71" stroke-width="2" pointer-events="visiblePainted" fill="#05527d" style="fill: rgb(5, 82, 125); stroke: rgb(5, 74, 113);"></rect><circle  cx="200" cy="88.88888888888889" r="88.88888888888889" id="v-1542" stroke="#054a71" stroke-width="2" pointer-events="visiblePainted" fill="#05527d" style="fill: rgb(5, 82, 125); stroke: rgb(5, 74, 113);"></circle><line  x1="80" y1="266.6666666666667" x2="80" y2="400" id="v-1549" stroke="#054a71" stroke-width="2" style="stroke: rgb(5, 74, 113);"></line><line  x1="320" y1="266.6666666666667" x2="320" y2="400" id="v-1550" stroke="#054a71" stroke-width="2" style="stroke: rgb(5, 74, 113);"></line><text  id="v-1544" font-size="34" xml:space="preserve" y="0.8em" font-weight="bold" text-anchor="middle" pointer-events="visible" font-family="Open Sans" fill="#ffffff" transform="matrix(1,0,0,1,200,232.5)" style="fill: rgb(255, 255, 255);"><tspan dy="0" >Developer</tspan></text><text  id="v-1545" font-size="17" xml:space="preserve" y="0.8em" text-anchor="middle" font-family="Open Sans" fill="#ffffff" transform="matrix(1,0,0,1,200,273.3)" style="fill: rgb(255, 255, 255);"><tspan dy="0" >[Person]</tspan></text><text  id="v-1546" font-size="24" xml:space="preserve" y="0.8em" text-anchor="middle" font-family="Open Sans" fill="#ffffff" transform="matrix(1,0,0,1,200,303.7)" style="fill: rgb(255, 255, 255);"><tspan dy="0" >A user who use supabase</tspan></text><g  id="v-1547" font-weight="normal" text-anchor="middle" color="#ffffff" transform="matrix(1,0,0,1,197.5,368)" display="none" style="fill: rgb(255, 255, 255);"><g ></g><g ></g><g ></g><g ></g></g><image  id="v-1548"></image></g></g><!--z-index:10--><g   id="j_132"  transform="translate(899,250)" style=""><g  id="v-1551" style="opacity: 1;"><rect  id="v-1552" rx="1" ry="1" stroke="#055887" stroke-width="2" pointer-events="visiblePainted" fill="#066296" width="450" height="300" style="fill: rgb(6, 98, 150); stroke: rgb(5, 88, 135);"></rect><text  id="v-1553" font-size="34" xml:space="preserve" y="0.8em" font-weight="bold" text-anchor="middle" pointer-events="visible" font-family="Open Sans" fill="#ffffff" transform="matrix(1,0,0,1,225,121.9)" style="fill: rgb(255, 255, 255);"><tspan dy="0" >Supagen</tspan></text><text  id="v-1554" font-size="17" xml:space="preserve" y="0.8em" text-anchor="middle" font-family="Open Sans" fill="#ffffff" transform="matrix(1,0,0,1,225,162.7)" style="fill: rgb(255, 255, 255);"><tspan dy="0" >[Software System]</tspan></text><text  id="v-1555" font-size="24" xml:space="preserve" display="none" y="0.8em" text-anchor="middle" font-family="Open Sans" fill="#ffffff" transform="matrix(1,0,0,1,225,183.1)" style="fill: rgb(255, 255, 255);"><tspan dy="0" style="fill-opacity: 0; stroke-opacity: 0;" >-</tspan></text><g  id="v-1556" color="#ffffff" transform="matrix(1,0,0,1,210,268)" display="none" style="fill: rgb(255, 255, 255);"><g  transform="translate(5 0)"><svg xmlns="http://www.w3.org/2000/svg" width="20" height="20" fill="currentColor" viewBox="0 0 16 16"><path fill-rule="evenodd" d="M6.5 12a5.5 5.5 0 1 0 0-11 5.5 5.5 0 0 0 0 11zM13 6.5a6.5 6.5 0 1 1-13 0 6.5 6.5 0 0 1 13 0z"></path><path d="M10.344 11.742c.03.04.062.078.098.115l3.85 3.85a1 1 0 0 0 1.415-1.414l-3.85-3.85a1.007 1.007 0 0 0-.115-.1 6.538 6.538 0 0 1-1.398 1.4z"></path><path fill-rule="evenodd" d="M6.5 3a.5.5 0 0 1 .5.5V6h2.5a.5.5 0 0 1 0 1H7v2.5a.5.5 0 0 1-1 0V7H3.5a.5.5 0 0 1 0-1H6V3.5a.5.5 0 0 1 .5-.5z"></path></svg></g><g ></g><g ></g><g ></g></g><image  id="v-1557"></image></g></g><!--z-index:11--><g   id="j_133"  transform="translate(1649,250)" style=""><g  id="v-1561" style="opacity: 1;"><rect  id="v-1562" rx="1" ry="1" stroke="#8a8a8a" stroke-width="2" pointer-events="visiblePainted" fill="#999999" width="450" height="300" style="fill: rgb(153, 153, 153); stroke: rgb(138, 138, 138);"></rect><text  id="v-1563" font-size="34" xml:space="preserve" y="0.8em" font-weight="bold" text-anchor="middle" pointer-events="visible" font-family="Open Sans" fill="#ffffff" transform="matrix(1,0,0,1,225,73.7)" style="fill: rgb(255, 255, 255);"><tspan dy="0" >Supabase Rest</tspan></text><text  id="v-1564" font-size="17" xml:space="preserve" y="0.8em" text-anchor="middle" font-family="Open Sans" fill="#ffffff" transform="matrix(1,0,0,1,225,114.5)" style="fill: rgb(255, 255, 255);"><tspan dy="0" >[Software System]</tspan></text><text  id="v-1565" font-size="24" xml:space="preserve" y="0.8em" text-anchor="middle" font-family="Open Sans" fill="#ffffff" transform="matrix(1,0,0,1,225,144.9)" style="fill: rgb(255, 255, 255);"><tspan dy="0" >Supabase Rest API that provides</tspan><tspan dy="1.2em" x="0" >table definitions using Postgrest via</tspan><tspan dy="1.2em" x="0" >/rest/v1/</tspan></text><g  id="v-1566" color="#ffffff" transform="matrix(1,0,0,1,222.5,268)" display="none" style="fill: rgb(255, 255, 255);"><g ></g><g ></g><g ></g><g ></g></g><image  id="v-1567"></image></g></g><!--z-index:12--><g   id="j_134" ><path  stroke="#aaaaaa" d="M 599 400 L 899 400" id="v-1577" stroke-width="2" stroke-dasharray="30 30" fill="none" style="opacity: 1;"></path><path  fill="black" stroke="black" d="M 0 0 0 0" transform="matrix(1,0,0,1,599,400)"></path><path  fill="#aaaaaa" stroke="#aaaaaa" d="M 20 0 L 0 10 L 20 20 z" id="v-1579" transform="matrix(-1,1.2246467991473532e-16,-1.2246467991473532e-16,-1,899,409.99999999999994)" style="opacity: 1;"></path><path  d="M 599 400 L 899 400" id="v-1578" fill="none" style="cursor: auto; pointer-events: visiblepainted;"></path><g ><g id="v-1571"  label-idx="0" cursor="move" transform="matrix(1,0,0,1,749,400)" style="cursor: default; opacity: 1;"><rect joint-selector="rect" id="v-1574" fill="#111111" rx="3" ry="3" pointer-events="none" width="53.84919738769531" height="32.857139587402344" transform="matrix(1,0,0,1,-26.9,-16.5)"></rect><text joint-selector="text" id="v-1573" font-size="24px" xml:space="preserve" y="0.8em" fill="#aaaaaa" text-anchor="middle" pointer-events="none" font-family="Open Sans" font-weight="normal" transform="matrix(1,0,0,1,0,-10.1)"><tspan dy="0" >Uses</tspan></text></g><g id="v-1572"  label-idx="1" cursor="move" transform="matrix(1,0,0,1,739,426.3999938964844)" style="cursor: default; opacity: 1;"><rect joint-selector="rect" id="v-1576" fill="#ffffff" rx="3" ry="3"  width="0" height="0" transform="matrix(1,0,0,1,0,0)" display="none"></rect><text joint-selector="text" id="v-1575" fill="#000000" font-size="14" text-anchor="middle" pointer-events="none"></text></g></g><g  display="none" style="display: none;"></g><g  id="v-1581" display="none"><g  id="v-1569"><path  end="source" d="M 26 0 L 0 13 L 26 26 z"></path></g><g  id="v-1570"><path  end="target" d="M 26 0 L 0 13 L 26 26 z"></path></g></g><g  id="v-1580" display="none"><g  id="v-1568" transform="translate(639, 400) "><g  event="remove"><circle r="11"></circle><path transform="scale(.8) translate(-16, -16)" d="M24.778,21.419 19.276,15.917 24.777,10.415 21.949,7.585 16.447,13.087 10.945,7.585 8.117,10.415 13.618,15.917 8.116,21.419 10.946,24.248 16.447,18.746 21.948,24.248z"></path><title>Remove link.</title></g><g  event="link:options"><circle r="11" transform="translate(25)"></circle><path fill="white" transform="scale(.55) translate(29, -16)" d="M31.229,17.736c0.064-0.571,0.104-1.148,0.104-1.736s-0.04-1.166-0.104-1.737l-4.377-1.557c-0.218-0.716-0.504-1.401-0.851-2.05l1.993-4.192c-0.725-0.91-1.549-1.734-2.458-2.459l-4.193,1.994c-0.647-0.347-1.334-0.632-2.049-0.849l-1.558-4.378C17.165,0.708,16.588,0.667,16,0.667s-1.166,0.041-1.737,0.105L12.707,5.15c-0.716,0.217-1.401,0.502-2.05,0.849L6.464,4.005C5.554,4.73,4.73,5.554,4.005,6.464l1.994,4.192c-0.347,0.648-0.632,1.334-0.849,2.05l-4.378,1.557C0.708,14.834,0.667,15.412,0.667,16s0.041,1.165,0.105,1.736l4.378,1.558c0.217,0.715,0.502,1.401,0.849,2.049l-1.994,4.193c0.725,0.909,1.549,1.733,2.459,2.458l4.192-1.993c0.648,0.347,1.334,0.633,2.05,0.851l1.557,4.377c0.571,0.064,1.148,0.104,1.737,0.104c0.588,0,1.165-0.04,1.736-0.104l1.558-4.377c0.715-0.218,1.399-0.504,2.049-0.851l4.193,1.993c0.909-0.725,1.733-1.549,2.458-2.458l-1.993-4.193c0.347-0.647,0.633-1.334,0.851-2.049L31.229,17.736zM16,20.871c-2.69,0-4.872-2.182-4.872-4.871c0-2.69,2.182-4.872,4.872-4.872c2.689,0,4.871,2.182,4.871,4.872C20.871,18.689,18.689,20.871,16,20.871z"></path><title>Link options.</title></g></g></g></g><!--z-index:13--><g   id="j_135" ><path  stroke="#aaaaaa" d="M 1349 400 L 1649 400" id="v-1594" stroke-width="2" stroke-dasharray="30 30" fill="none" style="opacity: 1;"></path><path  fill="black" stroke="black" d="M 0 0 0 0" transform="matrix(1,0,0,1,1349,400)"></path><path  fill="#aaaaaa" stroke="#aaaaaa" d="M 20 0 L 0 10 L 20 20 z" id="v-1596" transform="matrix(-1,1.2246467991473532e-16,-1.2246467991473532e-16,-1,1649,409.99999999999994)" style="opacity: 1;"></path><path  d="M 1349 400 L 1649 400" id="v-1595" fill="none" style="cursor: auto; pointer-events: visiblepainted;"></path><g ><g id="v-1588"  label-idx="0" cursor="move" transform="matrix(1,0,0,1,1499,400)" style="cursor: default; opacity: 1;"><rect joint-selector="rect" id="v-1591" fill="#111111" rx="3" ry="3" pointer-events="none" width="168.25022888183594" height="61.65714073181152" transform="matrix(1,0,0,1,-84.1,-30.9)"></rect><text joint-selector="text" id="v-1590" font-size="24px" xml:space="preserve" y="0.8em" fill="#aaaaaa" text-anchor="middle" pointer-events="none" font-family="Open Sans" font-weight="normal" transform="matrix(1,0,0,1,0,-24.5)"><tspan dy="0" >Fetch table</tspan><tspan dy="1.2em" x="0" >definitions into</tspan></text></g><g id="v-1589"  label-idx="1" cursor="move" transform="matrix(1,0,0,1,1489,440.79998779296875)" style="cursor: default; opacity: 1;"><rect joint-selector="rect" id="v-1593" fill="#ffffff" rx="3" ry="3"  width="0" height="0" transform="matrix(1,0,0,1,0,0)" display="none"></rect><text joint-selector="text" id="v-1592" fill="#000000" font-size="14" text-anchor="middle" pointer-events="none"></text></g></g><g  display="none" style="display: none;"></g><g  id="v-1598" display="none"><g  id="v-1586"><path  end="source" d="M 26 0 L 0 13 L 26 26 z"></path></g><g  id="v-1587"><path  end="target" d="M 26 0 L 0 13 L 26 26 z"></path></g></g><g  id="v-1597" display="none"><g  id="v-1585" transform="translate(1389, 400) "><g  event="remove"><circle r="11"></circle><path transform="scale(.8) translate(-16, -16)" d="M24.778,21.419 19.276,15.917 24.777,10.415 21.949,7.585 16.447,13.087 10.945,7.585 8.117,10.415 13.618,15.917 8.116,21.419 10.946,24.248 16.447,18.746 21.948,24.248z"></path><title>Remove link.</title></g><g  event="link:options"><circle r="11" transform="translate(25)"></circle><path fill="white" transform="scale(.55) translate(29, -16)" d="M31.229,17.736c0.064-0.571,0.104-1.148,0.104-1.736s-0.04-1.166-0.104-1.737l-4.377-1.557c-0.218-0.716-0.504-1.401-0.851-2.05l1.993-4.192c-0.725-0.91-1.549-1.734-2.458-2.459l-4.193,1.994c-0.647-0.347-1.334-0.632-2.049-0.849l-1.558-4.378C17.165,0.708,16.588,0.667,16,0.667s-1.166,0.041-1.737,0.105L12.707,5.15c-0.716,0.217-1.401,0.502-2.05,0.849L6.464,4.005C5.554,4.73,4.73,5.554,4.005,6.464l1.994,4.192c-0.347,0.648-0.632,1.334-0.849,2.05l-4.378,1.557C0.708,14.834,0.667,15.412,0.667,16s0.041,1.165,0.105,1.736l4.378,1.558c0.217,0.715,0.502,1.401,0.849,2.049l-1.994,4.193c0.725,0.909,1.549,1.733,2.459,2.458l4.192-1.993c0.648,0.347,1.334,0.633,2.05,0.851l1.557,4.377c0.571,0.064,1.148,0.104,1.737,0.104c0.588,0,1.165-0.04,1.736-0.104l1.558-4.377c0.715-0.218,1.399-0.504,2.049-0.851l4.193,1.993c0.909-0.725,1.733-1.549,2.458-2.458l-1.993-4.193c0.347-0.647,0.633-1.334,0.851-2.049L31.229,17.736zM16,20.871c-2.69,0-4.872-2.182-4.872-4.871c0-2.69,2.182-4.872,4.872-4.872c2.689,0,4.871,2.182,4.871,4.872C20.871,18.689,18.689,20.871,16,20.871z"></path><title>Link options.</title></g></g></g></g><!--z-index:14--><!--z-index:15--><!--z-index:16--><!--z-index:17--><!--z-index:18--><!--z-index:19--><!--z-index:20--><!--z-index:21--><!--z-index:22--><!--z-index:23--><!--z-index:24--><!--z-index:25--><!--z-index:26--><!--z-index:27--><!--z-index:28--><!--z-index:29--><!--z-index:30--><!--z-index:31--><!--z-index:32--><!--z-index:33--><!--z-index:34--><!--z-index:35--><!--z-index:36--><!--z-index:37--><!--z-index:38--><!--z-index:39--><!--z-index:40--><!--z-index:41--><!--z-index:42--><!--z-index:43--><!--z-index:44--><!--z-index:45--><!--z-index:46--><!--z-index:47--><!--z-index:48--><!--z-index:49--><!--z-index:50--><!--z-index:51--><!--z-index:52--><!--z-index:53--><!--z-index:54--><!--z-index:55--><!--z-index:56--><!--z-index:57--><!--z-index:58--><!--z-index:59--><!--z-index:60--></g><g ></g><g ></g><g ></g></g></svg>