<svg xmlns="http://www.w3.org/2000/svg" xmlns:xlink="http://www.w3.org/1999/xlink" version="1.1" viewBox="0 0 2320 1350" style="background: #111111"><defs><style>@import url(https://fonts.googleapis.com/css?family=Open+Sans:400,700);</style></defs><defs joint-selector="defs"></defs><g joint-selector="layers"  transform="matrix(1,0,0,1,0,0)"><g ></g><g ><!--z-index:1--><!--z-index:2--><!--z-index:3--><!--z-index:4--><!--z-index:5--><!--z-index:6--><!--z-index:7--><!--z-index:8--><!--z-index:9--><!--z-index:10--><!--z-index:11--><!--z-index:12--><!--z-index:13--><!--z-index:14--><g   id="j_137"  transform="translate(20,1313.6)"><g id="v-1604"><text  id="v-1605" font-size="22px" xml:space="preserve" y="0.8em" font-weight="normal" text-anchor="start" fill="#777777" pointer-events="none" display="block" font-family="Open Sans"><tspan dy="0" >Monday, September 23, 2024 at 4:02 AM Western Indonesia Time</tspan></text></g></g><!--z-index:15--><g   id="j_136"  transform="translate(20,1270.3999999999999)"><g id="v-1602"><text  id="v-1603" font-size="36px" xml:space="preserve" y="0.8em" font-weight="normal" text-anchor="start" fill="#bbbbbb" pointer-events="none" display="block" font-family="Open Sans"><tspan dy="0" >[Container] Supagen</tspan></text></g></g><!--z-index:16--><g   id="j_138"  transform="translate(200,199)" style=""><g  id="v-1609" style="opacity: 1;"><rect  x="0" y="160" width="400" height="240" rx="70" id="v-1611" stroke="#054a71" stroke-width="2" pointer-events="visiblePainted" fill="#05527d" style="fill: rgb(5, 82, 125); stroke: rgb(5, 74, 113);"></rect><circle  cx="200" cy="88.88888888888889" r="88.88888888888889" id="v-1610" stroke="#054a71" stroke-width="2" pointer-events="visiblePainted" fill="#05527d" style="fill: rgb(5, 82, 125); stroke: rgb(5, 74, 113);"></circle><line  x1="80" y1="266.6666666666667" x2="80" y2="400" id="v-1617" stroke="#054a71" stroke-width="2" style="stroke: rgb(5, 74, 113);"></line><line  x1="320" y1="266.6666666666667" x2="320" y2="400" id="v-1618" stroke="#054a71" stroke-width="2" style="stroke: rgb(5, 74, 113);"></line><text  id="v-1612" font-size="34" xml:space="preserve" y="0.8em" font-weight="bold" text-anchor="middle" pointer-events="visible" font-family="Open Sans" fill="#ffffff" transform="matrix(1,0,0,1,200,232.5)" style="fill: rgb(255, 255, 255);"><tspan dy="0" >Developer</tspan></text><text  id="v-1613" font-size="17" xml:space="preserve" y="0.8em" text-anchor="middle" font-family="Open Sans" fill="#ffffff" transform="matrix(1,0,0,1,200,273.3)" style="fill: rgb(255, 255, 255);"><tspan dy="0" >[Person]</tspan></text><text  id="v-1614" font-size="24" xml:space="preserve" y="0.8em" text-anchor="middle" font-family="Open Sans" fill="#ffffff" transform="matrix(1,0,0,1,200,303.7)" style="fill: rgb(255, 255, 255);"><tspan dy="0" >A user who use supabase</tspan></text><g  id="v-1615" font-weight="normal" text-anchor="middle" color="#ffffff" transform="matrix(1,0,0,1,197.5,368)" display="none" style="fill: rgb(255, 255, 255);"><g ></g><g ></g><g ></g><g ></g></g><image  id="v-1616"></image></g></g><!--z-index:17--><g   id="j_140"  transform="translate(880,229)" style=""><g id="v-1629"><rect  id="v-1630" width="1240" height="411" rx="0" ry="0" fill="#111111" stroke="#055887" stroke-width="1" stroke-dasharray="20,20" pointer-events="none"></rect><text  id="v-1631" font-size="24px" xml:space="preserve" y="372" font-weight="normal" fill="#055887" text-anchor="start" pointer-events="visible" font-family="Open Sans" transform="matrix(1,0,0,1,15,0)"><tspan dy="0" >Supagen</tspan></text><text  id="v-1632" font-size="17px" xml:space="preserve" y="396" font-weight="normal" fill="#055887" text-anchor="start" pointer-events="visible" font-family="Open Sans" transform="matrix(1,0,0,1,15,0)"><tspan dy="0" >[Software System]</tspan></text><image  id="v-1633" pointer-events="visible"></image></g></g><!--z-index:18--><g   id="j_139"  transform="translate(900,249)" style=""><g  id="v-1622" style="opacity: 1;"><rect  id="v-1623" rx="1" ry="1" stroke="#06689e" stroke-width="2" pointer-events="visiblePainted" fill="#0773af" width="450" height="300" style="fill: rgb(7, 115, 175); stroke: rgb(6, 104, 158);"></rect><text  id="v-1624" font-size="34" xml:space="preserve" y="0.8em" font-weight="bold" text-anchor="middle" pointer-events="visible" font-family="Open Sans" fill="#ffffff" transform="matrix(1,0,0,1,225,88.1)" style="fill: rgb(255, 255, 255);"><tspan dy="0" >Supagen CLI</tspan></text><text  id="v-1625" font-size="17" xml:space="preserve" y="0.8em" text-anchor="middle" font-family="Open Sans" fill="#ffffff" transform="matrix(1,0,0,1,225,128.9)" style="fill: rgb(255, 255, 255);"><tspan dy="0" >[Container: Dart]</tspan></text><text  id="v-1626" font-size="24" xml:space="preserve" y="0.8em" text-anchor="middle" font-family="Open Sans" fill="#ffffff" transform="matrix(1,0,0,1,225,159.3)" style="fill: rgb(255, 255, 255);"><tspan dy="0" >A command line interface that will</tspan><tspan dy="1.2em" x="0" >be used by developers</tspan></text><g  id="v-1627" color="#ffffff" transform="matrix(1,0,0,1,210,268)" display="none" style="fill: rgb(255, 255, 255);"><g  transform="translate(5 0)"><svg xmlns="http://www.w3.org/2000/svg" width="20" height="20" fill="currentColor" viewBox="0 0 16 16"><path fill-rule="evenodd" d="M6.5 12a5.5 5.5 0 1 0 0-11 5.5 5.5 0 0 0 0 11zM13 6.5a6.5 6.5 0 1 1-13 0 6.5 6.5 0 0 1 13 0z"></path><path d="M10.344 11.742c.03.04.062.078.098.115l3.85 3.85a1 1 0 0 0 1.415-1.414l-3.85-3.85a1.007 1.007 0 0 0-.115-.1 6.538 6.538 0 0 1-1.398 1.4z"></path><path fill-rule="evenodd" d="M6.5 3a.5.5 0 0 1 .5.5V6h2.5a.5.5 0 0 1 0 1H7v2.5a.5.5 0 0 1-1 0V7H3.5a.5.5 0 0 1 0-1H6V3.5a.5.5 0 0 1 .5-.5z"></path></svg></g><g ></g><g ></g><g ></g></g><image  id="v-1628"></image></g></g><!--z-index:19--><g   id="j_141"  transform="translate(1650,249)" style=""><g  id="v-1637" style="opacity: 1;"><rect  id="v-1638" rx="1" ry="1" stroke="#06689e" stroke-width="2" pointer-events="visiblePainted" fill="#0773af" width="450" height="300" style="fill: rgb(7, 115, 175); stroke: rgb(6, 104, 158);"></rect><text  id="v-1639" font-size="34" xml:space="preserve" y="0.8em" font-weight="bold" text-anchor="middle" pointer-events="visible" font-family="Open Sans" fill="#ffffff" transform="matrix(1,0,0,1,225,88.1)" style="fill: rgb(255, 255, 255);"><tspan dy="0" >supagen_bricks</tspan></text><text  id="v-1640" font-size="17" xml:space="preserve" y="0.8em" text-anchor="middle" font-family="Open Sans" fill="#ffffff" transform="matrix(1,0,0,1,225,128.9)" style="fill: rgb(255, 255, 255);"><tspan dy="0" >[Container: Dart]</tspan></text><text  id="v-1641" font-size="24" xml:space="preserve" y="0.8em" text-anchor="middle" font-family="Open Sans" fill="#ffffff" transform="matrix(1,0,0,1,225,159.3)" style="fill: rgb(255, 255, 255);"><tspan dy="0" >Template/bricks that will be used by</tspan><tspan dy="1.2em" x="0" >Mason</tspan></text><g  id="v-1642" color="#ffffff" transform="matrix(1,0,0,1,210,268)" display="none" style="fill: rgb(255, 255, 255);"><g  transform="translate(5 0)"><svg xmlns="http://www.w3.org/2000/svg" width="20" height="20" fill="currentColor" viewBox="0 0 16 16"><path fill-rule="evenodd" d="M6.5 12a5.5 5.5 0 1 0 0-11 5.5 5.5 0 0 0 0 11zM13 6.5a6.5 6.5 0 1 1-13 0 6.5 6.5 0 0 1 13 0z"></path><path d="M10.344 11.742c.03.04.062.078.098.115l3.85 3.85a1 1 0 0 0 1.415-1.414l-3.85-3.85a1.007 1.007 0 0 0-.115-.1 6.538 6.538 0 0 1-1.398 1.4z"></path><path fill-rule="evenodd" d="M6.5 3a.5.5 0 0 1 .5.5V6h2.5a.5.5 0 0 1 0 1H7v2.5a.5.5 0 0 1-1 0V7H3.5a.5.5 0 0 1 0-1H6V3.5a.5.5 0 0 1 .5-.5z"></path></svg></g><g ></g><g ></g><g ></g></g><image  id="v-1643"></image></g></g><!--z-index:20--><g   id="j_142"  transform="translate(1650,849)" style=""><g  id="v-1647" style="opacity: 1;"><rect  id="v-1648" rx="1" ry="1" stroke="#8a8a8a" stroke-width="2" pointer-events="visiblePainted" fill="#999999" width="450" height="300" style="fill: rgb(153, 153, 153); stroke: rgb(138, 138, 138);"></rect><text  id="v-1649" font-size="34" xml:space="preserve" y="0.8em" font-weight="bold" text-anchor="middle" pointer-events="visible" font-family="Open Sans" fill="#ffffff" transform="matrix(1,0,0,1,225,73.7)" style="fill: rgb(255, 255, 255);"><tspan dy="0" >Supabase Rest</tspan></text><text  id="v-1650" font-size="17" xml:space="preserve" y="0.8em" text-anchor="middle" font-family="Open Sans" fill="#ffffff" transform="matrix(1,0,0,1,225,114.5)" style="fill: rgb(255, 255, 255);"><tspan dy="0" >[Software System]</tspan></text><text  id="v-1651" font-size="24" xml:space="preserve" y="0.8em" text-anchor="middle" font-family="Open Sans" fill="#ffffff" transform="matrix(1,0,0,1,225,144.9)" style="fill: rgb(255, 255, 255);"><tspan dy="0" >Supabase Rest API that provides</tspan><tspan dy="1.2em" x="0" >table definitions using Postgrest via</tspan><tspan dy="1.2em" x="0" >/rest/v1/</tspan></text><g  id="v-1652" color="#ffffff" transform="matrix(1,0,0,1,222.5,268)" display="none" style="fill: rgb(255, 255, 255);"><g ></g><g ></g><g ></g><g ></g></g><image  id="v-1653"></image></g></g><!--z-index:21--><g   id="j_143" ><path  stroke="#aaaaaa" d="M 600 399 L 753 399 C 759.3333333333333 399 766 399 773 399 L 900 399" id="v-1664" stroke-width="2" stroke-dasharray="30 30" fill="none" style="opacity: 1;"></path><path  fill="black" stroke="black" d="M 0 0 0 0" transform="matrix(1,0,0,1,600,399)"></path><path  fill="#aaaaaa" stroke="#aaaaaa" d="M 20 0 L 0 10 L 20 20 z" id="v-1666" transform="matrix(-1,1.2246467991473532e-16,-1.2246467991473532e-16,-1,900,409)" style="opacity: 1;"></path><path  d="M 600 399 L 753 399 C 759.3333333333333 399 766 399 773 399 L 900 399" id="v-1665" fill="none" style="cursor: auto; pointer-events: visiblepainted;"></path><g ><g id="v-1658"  label-idx="0" cursor="move" transform="matrix(1,0,0,1,750,399)" style="cursor: default; opacity: 1;"><rect joint-selector="rect" id="v-1661" fill="#111111" rx="3" ry="3" pointer-events="none" width="35.38690185546875" height="33.142852783203125" transform="matrix(1,0,0,1,-17.7,-16.6)"></rect><text joint-selector="text" id="v-1660" font-size="24px" xml:space="preserve" y="0.8em" fill="#aaaaaa" text-anchor="middle" pointer-events="none" font-family="Open Sans" font-weight="normal" transform="matrix(1,0,0,1,0,-10)"><tspan dy="0" >init</tspan></text></g><g id="v-1659"  label-idx="1" cursor="move" transform="matrix(1,0,0,1,740,425.3999938964844)" style="cursor: default; opacity: 1;"><rect joint-selector="rect" id="v-1663" fill="#ffffff" rx="3" ry="3"  width="0" height="0" transform="matrix(1,0,0,1,0,0)" display="none"></rect><text joint-selector="text" id="v-1662" fill="#000000" font-size="14" text-anchor="middle" pointer-events="none"></text></g></g><g  display="none" style="display: none;"><g  transform="translate(762.5, 399)" id="v-1655"><circle  idx="0" r="10"></circle><path  idx="0" d="M16,5.333c-7.732,0-14,4.701-14,10.5c0,1.982,0.741,3.833,2.016,5.414L2,25.667l5.613-1.441c2.339,1.317,5.237,2.107,8.387,2.107c7.732,0,14-4.701,14-10.5C30,10.034,23.732,5.333,16,5.333z" transform="translate(5, -33)"></path><path  idx="0" transform="scale(.8) translate(9.5, -37)" d="M24.778,21.419 19.276,15.917 24.777,10.415 21.949,7.585 16.447,13.087 10.945,7.585 8.117,10.415 13.618,15.917 8.116,21.419 10.946,24.248 16.447,18.746 21.948,24.248z"><title>Remove vertex.</title></path></g></g><g  id="v-1668" display="none"><g  id="v-1656"><path  end="source" d="M 26 0 L 0 13 L 26 26 z"></path></g><g  id="v-1657"><path  end="target" d="M 26 0 L 0 13 L 26 26 z"></path></g></g><g  id="v-1667" display="none"><g  id="v-1654" transform="translate(640, 399) "><g  event="remove"><circle r="11"></circle><path transform="scale(.8) translate(-16, -16)" d="M24.778,21.419 19.276,15.917 24.777,10.415 21.949,7.585 16.447,13.087 10.945,7.585 8.117,10.415 13.618,15.917 8.116,21.419 10.946,24.248 16.447,18.746 21.948,24.248z"></path><title>Remove link.</title></g><g  event="link:options"><circle r="11" transform="translate(25)"></circle><path fill="white" transform="scale(.55) translate(29, -16)" d="M31.229,17.736c0.064-0.571,0.104-1.148,0.104-1.736s-0.04-1.166-0.104-1.737l-4.377-1.557c-0.218-0.716-0.504-1.401-0.851-2.05l1.993-4.192c-0.725-0.91-1.549-1.734-2.458-2.459l-4.193,1.994c-0.647-0.347-1.334-0.632-2.049-0.849l-1.558-4.378C17.165,0.708,16.588,0.667,16,0.667s-1.166,0.041-1.737,0.105L12.707,5.15c-0.716,0.217-1.401,0.502-2.05,0.849L6.464,4.005C5.554,4.73,4.73,5.554,4.005,6.464l1.994,4.192c-0.347,0.648-0.632,1.334-0.849,2.05l-4.378,1.557C0.708,14.834,0.667,15.412,0.667,16s0.041,1.165,0.105,1.736l4.378,1.558c0.217,0.715,0.502,1.401,0.849,2.049l-1.994,4.193c0.725,0.909,1.549,1.733,2.459,2.458l4.192-1.993c0.648,0.347,1.334,0.633,2.05,0.851l1.557,4.377c0.571,0.064,1.148,0.104,1.737,0.104c0.588,0,1.165-0.04,1.736-0.104l1.558-4.377c0.715-0.218,1.399-0.504,2.049-0.851l4.193,1.993c0.909-0.725,1.733-1.549,2.458-2.458l-1.993-4.193c0.347-0.647,0.633-1.334,0.851-2.049L31.229,17.736zM16,20.871c-2.69,0-4.872-2.182-4.872-4.871c0-2.69,2.182-4.872,4.872-4.872c2.689,0,4.871,2.182,4.871,4.872C20.871,18.689,18.689,20.871,16,20.871z"></path><title>Link options.</title></g></g></g></g><!--z-index:22--><g   id="j_144" ><path  stroke="#aaaaaa" d="M 600 316 L 753 253 C 759.3333333333333 250.33333333333331 765.6666666666666 250.33333333333331 772 253 L 900 306" id="v-1679" stroke-width="2" stroke-dasharray="30 30" fill="none" style="opacity: 1;"></path><path  fill="black" stroke="black" d="M 0 0 0 0" transform="matrix(0.9240197051894224,-0.3823448501309424,0.3823448501309424,0.9240197051894224,600,316.239990234375)"></path><path  fill="#aaaaaa" stroke="#aaaaaa" d="M 20 0 L 0 10 L 20 20 z" id="v-1681" transform="matrix(-0.9240086059194972,-0.3823716728350929,0.3823716728350929,-0.9240086059194972,896.1762570261566,315.1400967328584)" style="opacity: 1;"></path><path  d="M 600 316 L 753 253 C 759.3333333333333 250.33333333333331 765.6666666666666 250.33333333333331 772 253 L 900 306" id="v-1680" fill="none" style="cursor: auto; pointer-events: visiblepainted;"></path><g ><g id="v-1673"  label-idx="0" cursor="move" transform="matrix(1,0,0,1,749.5884399414062,254.40475463867188)" style="cursor: default; opacity: 1;"><rect joint-selector="rect" id="v-1676" fill="#111111" rx="3" ry="3" pointer-events="none" width="79.43352508544922" height="33.142852783203125" transform="matrix(1,0,0,1,-39.7,-16.6)"></rect><text joint-selector="text" id="v-1675" font-size="24px" xml:space="preserve" y="0.8em" fill="#aaaaaa" text-anchor="middle" pointer-events="none" font-family="Open Sans" font-weight="normal" transform="matrix(1,0,0,1,0,-10)"><tspan dy="0" >update</tspan></text></g><g id="v-1674"  label-idx="1" cursor="move" transform="matrix(1,0,0,1,739.5884399414062,280.80474853515625)" style="cursor: default; opacity: 1;"><rect joint-selector="rect" id="v-1678" fill="#ffffff" rx="3" ry="3"  width="0" height="0" transform="matrix(1,0,0,1,0,0)" display="none"></rect><text joint-selector="text" id="v-1677" fill="#000000" font-size="14" text-anchor="middle" pointer-events="none"></text></g></g><g  display="none" style="display: none;"><g  transform="translate(762.5, 249)" id="v-1670"><circle  idx="0" r="10"></circle><path  idx="0" d="M16,5.333c-7.732,0-14,4.701-14,10.5c0,1.982,0.741,3.833,2.016,5.414L2,25.667l5.613-1.441c2.339,1.317,5.237,2.107,8.387,2.107c7.732,0,14-4.701,14-10.5C30,10.034,23.732,5.333,16,5.333z" transform="translate(5, -33)"></path><path  idx="0" transform="scale(.8) translate(9.5, -37)" d="M24.778,21.419 19.276,15.917 24.777,10.415 21.949,7.585 16.447,13.087 10.945,7.585 8.117,10.415 13.618,15.917 8.116,21.419 10.946,24.248 16.447,18.746 21.948,24.248z"><title>Remove vertex.</title></path></g></g><g  id="v-1683" display="none"><g  id="v-1671"><path  end="source" d="M 26 0 L 0 13 L 26 26 z"></path></g><g  id="v-1672"><path  end="target" d="M 26 0 L 0 13 L 26 26 z"></path></g></g><g  id="v-1682" display="none"><g  id="v-1669" transform="translate(636.9871239389887, 300.77000778982824) "><g  event="remove"><circle r="11"></circle><path transform="scale(.8) translate(-16, -16)" d="M24.778,21.419 19.276,15.917 24.777,10.415 21.949,7.585 16.447,13.087 10.945,7.585 8.117,10.415 13.618,15.917 8.116,21.419 10.946,24.248 16.447,18.746 21.948,24.248z"></path><title>Remove link.</title></g><g  event="link:options"><circle r="11" transform="translate(25)"></circle><path fill="white" transform="scale(.55) translate(29, -16)" d="M31.229,17.736c0.064-0.571,0.104-1.148,0.104-1.736s-0.04-1.166-0.104-1.737l-4.377-1.557c-0.218-0.716-0.504-1.401-0.851-2.05l1.993-4.192c-0.725-0.91-1.549-1.734-2.458-2.459l-4.193,1.994c-0.647-0.347-1.334-0.632-2.049-0.849l-1.558-4.378C17.165,0.708,16.588,0.667,16,0.667s-1.166,0.041-1.737,0.105L12.707,5.15c-0.716,0.217-1.401,0.502-2.05,0.849L6.464,4.005C5.554,4.73,4.73,5.554,4.005,6.464l1.994,4.192c-0.347,0.648-0.632,1.334-0.849,2.05l-4.378,1.557C0.708,14.834,0.667,15.412,0.667,16s0.041,1.165,0.105,1.736l4.378,1.558c0.217,0.715,0.502,1.401,0.849,2.049l-1.994,4.193c0.725,0.909,1.549,1.733,2.459,2.458l4.192-1.993c0.648,0.347,1.334,0.633,2.05,0.851l1.557,4.377c0.571,0.064,1.148,0.104,1.737,0.104c0.588,0,1.165-0.04,1.736-0.104l1.558-4.377c0.715-0.218,1.399-0.504,2.049-0.851l4.193,1.993c0.909-0.725,1.733-1.549,2.458-2.458l-1.993-4.193c0.347-0.647,0.633-1.334,0.851-2.049L31.229,17.736zM16,20.871c-2.69,0-4.872-2.182-4.872-4.871c0-2.69,2.182-4.872,4.872-4.872c2.689,0,4.871,2.182,4.871,4.872C20.871,18.689,18.689,20.871,16,20.871z"></path><title>Link options.</title></g></g></g></g><!--z-index:23--><g   id="j_145" ><path  stroke="#aaaaaa" d="M 600 482 L 753 545 C 759.3333333333333 547.6666666666666 765.6666666666666 547.6666666666666 772 545 L 900 492" id="v-1694" stroke-width="2" stroke-dasharray="30 30" fill="none" style="opacity: 1;"></path><path  fill="black" stroke="black" d="M 0 0 0 0" transform="matrix(0.9240196033647968,0.38234509621226154,-0.38234509621226154,0.9240196033647968,600,481.760009765625)"></path><path  fill="#aaaaaa" stroke="#aaaaaa" d="M 20 0 L 0 10 L 20 20 z" id="v-1696" transform="matrix(-0.9240086059194971,0.38237167283509316,-0.38237167283509316,-0.9240086059194971,903.8236904828584,501.3400753855315)" style="opacity: 1;"></path><path  d="M 600 482 L 753 545 C 759.3333333333333 547.6666666666666 765.6666666666666 547.6666666666666 772 545 L 900 492" id="v-1695" fill="none" style="cursor: auto; pointer-events: visiblepainted;"></path><g ><g id="v-1688"  label-idx="0" cursor="move" transform="matrix(1,0,0,1,749.5884399414062,543.5952758789062)" style="cursor: default; opacity: 1;"><rect joint-selector="rect" id="v-1691" fill="#111111" rx="3" ry="3" pointer-events="none" width="81.90773010253906" height="33.142852783203125" transform="matrix(1,0,0,1,-41,-16.6)"></rect><text joint-selector="text" id="v-1690" font-size="24px" xml:space="preserve" y="0.8em" fill="#aaaaaa" text-anchor="middle" pointer-events="none" font-family="Open Sans" font-weight="normal" transform="matrix(1,0,0,1,0,-10)"><tspan dy="0" >version</tspan></text></g><g id="v-1689"  label-idx="1" cursor="move" transform="matrix(1,0,0,1,739.5884399414062,569.9952392578125)" style="cursor: default; opacity: 1;"><rect joint-selector="rect" id="v-1693" fill="#ffffff" rx="3" ry="3"  width="0" height="0" transform="matrix(1,0,0,1,0,0)" display="none"></rect><text joint-selector="text" id="v-1692" fill="#000000" font-size="14" text-anchor="middle" pointer-events="none"></text></g></g><g  display="none" style="display: none;"><g  transform="translate(762.5, 549)" id="v-1685"><circle  idx="0" r="10"></circle><path  idx="0" d="M16,5.333c-7.732,0-14,4.701-14,10.5c0,1.982,0.741,3.833,2.016,5.414L2,25.667l5.613-1.441c2.339,1.317,5.237,2.107,8.387,2.107c7.732,0,14-4.701,14-10.5C30,10.034,23.732,5.333,16,5.333z" transform="translate(5, -33)"></path><path  idx="0" transform="scale(.8) translate(9.5, -37)" d="M24.778,21.419 19.276,15.917 24.777,10.415 21.949,7.585 16.447,13.087 10.945,7.585 8.117,10.415 13.618,15.917 8.116,21.419 10.946,24.248 16.447,18.746 21.948,24.248z"><title>Remove vertex.</title></path></g></g><g  id="v-1698" display="none"><g  id="v-1686"><path  end="source" d="M 26 0 L 0 13 L 26 26 z"></path></g><g  id="v-1687"><path  end="target" d="M 26 0 L 0 13 L 26 26 z"></path></g></g><g  id="v-1697" display="none"><g  id="v-1684" transform="translate(636.9871239389887, 497.2299922101719) "><g  event="remove"><circle r="11"></circle><path transform="scale(.8) translate(-16, -16)" d="M24.778,21.419 19.276,15.917 24.777,10.415 21.949,7.585 16.447,13.087 10.945,7.585 8.117,10.415 13.618,15.917 8.116,21.419 10.946,24.248 16.447,18.746 21.948,24.248z"></path><title>Remove link.</title></g><g  event="link:options"><circle r="11" transform="translate(25)"></circle><path fill="white" transform="scale(.55) translate(29, -16)" d="M31.229,17.736c0.064-0.571,0.104-1.148,0.104-1.736s-0.04-1.166-0.104-1.737l-4.377-1.557c-0.218-0.716-0.504-1.401-0.851-2.05l1.993-4.192c-0.725-0.91-1.549-1.734-2.458-2.459l-4.193,1.994c-0.647-0.347-1.334-0.632-2.049-0.849l-1.558-4.378C17.165,0.708,16.588,0.667,16,0.667s-1.166,0.041-1.737,0.105L12.707,5.15c-0.716,0.217-1.401,0.502-2.05,0.849L6.464,4.005C5.554,4.73,4.73,5.554,4.005,6.464l1.994,4.192c-0.347,0.648-0.632,1.334-0.849,2.05l-4.378,1.557C0.708,14.834,0.667,15.412,0.667,16s0.041,1.165,0.105,1.736l4.378,1.558c0.217,0.715,0.502,1.401,0.849,2.049l-1.994,4.193c0.725,0.909,1.549,1.733,2.459,2.458l4.192-1.993c0.648,0.347,1.334,0.633,2.05,0.851l1.557,4.377c0.571,0.064,1.148,0.104,1.737,0.104c0.588,0,1.165-0.04,1.736-0.104l1.558-4.377c0.715-0.218,1.399-0.504,2.049-0.851l4.193,1.993c0.909-0.725,1.733-1.549,2.458-2.458l-1.993-4.193c0.347-0.647,0.633-1.334,0.851-2.049L31.229,17.736zM16,20.871c-2.69,0-4.872-2.182-4.872-4.871c0-2.69,2.182-4.872,4.872-4.872c2.689,0,4.871,2.182,4.871,4.872C20.871,18.689,18.689,20.871,16,20.871z"></path><title>Link options.</title></g></g></g></g><!--z-index:24--><g   id="j_146" ><path  stroke="#aaaaaa" d="M 1350 399 L 1650 399" id="v-1708" stroke-width="2" stroke-dasharray="30 30" fill="none" style="opacity: 1;"></path><path  fill="black" stroke="black" d="M 0 0 0 0" transform="matrix(1,0,0,1,1350,399)"></path><path  fill="#aaaaaa" stroke="#aaaaaa" d="M 20 0 L 0 10 L 20 20 z" id="v-1710" transform="matrix(-1,1.2246467991473532e-16,-1.2246467991473532e-16,-1,1650,409)" style="opacity: 1;"></path><path  d="M 1350 399 L 1650 399" id="v-1709" fill="none" style="cursor: auto; pointer-events: visiblepainted;"></path><g ><g id="v-1702"  label-idx="0" cursor="move" transform="matrix(1,0,0,1,1500,399)" style="cursor: default; opacity: 1;"><rect joint-selector="rect" id="v-1705" fill="#111111" rx="3" ry="3" pointer-events="none" width="53.842750549316406" height="33.142852783203125" transform="matrix(1,0,0,1,-26.9,-16.6)"></rect><text joint-selector="text" id="v-1704" font-size="24px" xml:space="preserve" y="0.8em" fill="#aaaaaa" text-anchor="middle" pointer-events="none" font-family="Open Sans" font-weight="normal" transform="matrix(1,0,0,1,0,-10)"><tspan dy="0" >Uses</tspan></text></g><g id="v-1703"  label-idx="1" cursor="move" transform="matrix(1,0,0,1,1490,425.3999938964844)" style="cursor: default; opacity: 1;"><rect joint-selector="rect" id="v-1707" fill="#ffffff" rx="3" ry="3"  width="0" height="0" transform="matrix(1,0,0,1,0,0)" display="none"></rect><text joint-selector="text" id="v-1706" fill="#000000" font-size="14" text-anchor="middle" pointer-events="none"></text></g></g><g  display="none" style="display: none;"></g><g  id="v-1712" display="none"><g  id="v-1700"><path  end="source" d="M 26 0 L 0 13 L 26 26 z"></path></g><g  id="v-1701"><path  end="target" d="M 26 0 L 0 13 L 26 26 z"></path></g></g><g  id="v-1711" display="none"><g  id="v-1699" transform="translate(1390, 399) "><g  event="remove"><circle r="11"></circle><path transform="scale(.8) translate(-16, -16)" d="M24.778,21.419 19.276,15.917 24.777,10.415 21.949,7.585 16.447,13.087 10.945,7.585 8.117,10.415 13.618,15.917 8.116,21.419 10.946,24.248 16.447,18.746 21.948,24.248z"></path><title>Remove link.</title></g><g  event="link:options"><circle r="11" transform="translate(25)"></circle><path fill="white" transform="scale(.55) translate(29, -16)" d="M31.229,17.736c0.064-0.571,0.104-1.148,0.104-1.736s-0.04-1.166-0.104-1.737l-4.377-1.557c-0.218-0.716-0.504-1.401-0.851-2.05l1.993-4.192c-0.725-0.91-1.549-1.734-2.458-2.459l-4.193,1.994c-0.647-0.347-1.334-0.632-2.049-0.849l-1.558-4.378C17.165,0.708,16.588,0.667,16,0.667s-1.166,0.041-1.737,0.105L12.707,5.15c-0.716,0.217-1.401,0.502-2.05,0.849L6.464,4.005C5.554,4.73,4.73,5.554,4.005,6.464l1.994,4.192c-0.347,0.648-0.632,1.334-0.849,2.05l-4.378,1.557C0.708,14.834,0.667,15.412,0.667,16s0.041,1.165,0.105,1.736l4.378,1.558c0.217,0.715,0.502,1.401,0.849,2.049l-1.994,4.193c0.725,0.909,1.549,1.733,2.459,2.458l4.192-1.993c0.648,0.347,1.334,0.633,2.05,0.851l1.557,4.377c0.571,0.064,1.148,0.104,1.737,0.104c0.588,0,1.165-0.04,1.736-0.104l1.558-4.377c0.715-0.218,1.399-0.504,2.049-0.851l4.193,1.993c0.909-0.725,1.733-1.549,2.458-2.458l-1.993-4.193c0.347-0.647,0.633-1.334,0.851-2.049L31.229,17.736zM16,20.871c-2.69,0-4.872-2.182-4.872-4.871c0-2.69,2.182-4.872,4.872-4.872c2.689,0,4.871,2.182,4.871,4.872C20.871,18.689,18.689,20.871,16,20.871z"></path><title>Link options.</title></g></g></g></g><!--z-index:25--><g   id="j_147" ><path  stroke="#aaaaaa" d="M 1313 549 L 1688 849" id="v-1725" stroke-width="2" stroke-dasharray="30 30" fill="none" style="opacity: 1;"></path><path  fill="black" stroke="black" d="M 0 0 0 0" transform="matrix(0.7808688000832672,0.624695059254128,-0.624695059254128,0.7808688000832672,1312.5,549)"></path><path  fill="#aaaaaa" stroke="#aaaaaa" d="M 20 0 L 0 10 L 20 20 z" id="v-1727" transform="matrix(-0.7808688416748548,-0.6246950072646416,0.6246950072646416,-0.7808688416748548,1681.2530225237897,856.8086902472074)" style="opacity: 1;"></path><path  d="M 1313 549 L 1688 849" id="v-1726" fill="none" style="cursor: auto; pointer-events: visiblepainted;"></path><g ><g id="v-1719"  label-idx="0" cursor="move" transform="matrix(1,0,0,1,1500.5,699)" style="cursor: default; opacity: 1;"><rect joint-selector="rect" id="v-1722" fill="#111111" rx="3" ry="3" pointer-events="none" width="168.23162841796875" height="61.94285583496094" transform="matrix(1,0,0,1,-84.1,-31)"></rect><text joint-selector="text" id="v-1721" font-size="24px" xml:space="preserve" y="0.8em" fill="#aaaaaa" text-anchor="middle" pointer-events="none" font-family="Open Sans" font-weight="normal" transform="matrix(1,0,0,1,0,-24.4)"><tspan dy="0" >Fetch table</tspan><tspan dy="1.2em" x="0" >definitions into</tspan></text></g><g id="v-1720"  label-idx="1" cursor="move" transform="matrix(1,0,0,1,1490.5,739.7999877929688)" style="cursor: default; opacity: 1;"><rect joint-selector="rect" id="v-1724" fill="#ffffff" rx="3" ry="3"  width="0" height="0" transform="matrix(1,0,0,1,0,0)" display="none"></rect><text joint-selector="text" id="v-1723" fill="#000000" font-size="14" text-anchor="middle" pointer-events="none"></text></g></g><g  display="none" style="display: none;"></g><g  id="v-1729" display="none"><g  id="v-1717"><path  end="source" d="M 26 0 L 0 13 L 26 26 z"></path></g><g  id="v-1718"><path  end="target" d="M 26 0 L 0 13 L 26 26 z"></path></g></g><g  id="v-1728" display="none"><g  id="v-1716" transform="translate(1344.2347523777214, 573.987801902177) "><g  event="remove"><circle r="11"></circle><path transform="scale(.8) translate(-16, -16)" d="M24.778,21.419 19.276,15.917 24.777,10.415 21.949,7.585 16.447,13.087 10.945,7.585 8.117,10.415 13.618,15.917 8.116,21.419 10.946,24.248 16.447,18.746 21.948,24.248z"></path><title>Remove link.</title></g><g  event="link:options"><circle r="11" transform="translate(25)"></circle><path fill="white" transform="scale(.55) translate(29, -16)" d="M31.229,17.736c0.064-0.571,0.104-1.148,0.104-1.736s-0.04-1.166-0.104-1.737l-4.377-1.557c-0.218-0.716-0.504-1.401-0.851-2.05l1.993-4.192c-0.725-0.91-1.549-1.734-2.458-2.459l-4.193,1.994c-0.647-0.347-1.334-0.632-2.049-0.849l-1.558-4.378C17.165,0.708,16.588,0.667,16,0.667s-1.166,0.041-1.737,0.105L12.707,5.15c-0.716,0.217-1.401,0.502-2.05,0.849L6.464,4.005C5.554,4.73,4.73,5.554,4.005,6.464l1.994,4.192c-0.347,0.648-0.632,1.334-0.849,2.05l-4.378,1.557C0.708,14.834,0.667,15.412,0.667,16s0.041,1.165,0.105,1.736l4.378,1.558c0.217,0.715,0.502,1.401,0.849,2.049l-1.994,4.193c0.725,0.909,1.549,1.733,2.459,2.458l4.192-1.993c0.648,0.347,1.334,0.633,2.05,0.851l1.557,4.377c0.571,0.064,1.148,0.104,1.737,0.104c0.588,0,1.165-0.04,1.736-0.104l1.558-4.377c0.715-0.218,1.399-0.504,2.049-0.851l4.193,1.993c0.909-0.725,1.733-1.549,2.458-2.458l-1.993-4.193c0.347-0.647,0.633-1.334,0.851-2.049L31.229,17.736zM16,20.871c-2.69,0-4.872-2.182-4.872-4.871c0-2.69,2.182-4.872,4.872-4.872c2.689,0,4.871,2.182,4.871,4.872C20.871,18.689,18.689,20.871,16,20.871z"></path><title>Link options.</title></g></g></g></g><!--z-index:26--><!--z-index:27--><!--z-index:28--><!--z-index:29--><!--z-index:30--><!--z-index:31--><!--z-index:32--><!--z-index:33--><!--z-index:34--><!--z-index:35--><!--z-index:36--><!--z-index:37--><!--z-index:38--><!--z-index:39--><!--z-index:40--><!--z-index:41--><!--z-index:42--><!--z-index:43--><!--z-index:44--><!--z-index:45--><!--z-index:46--><!--z-index:47--><!--z-index:48--><!--z-index:49--><!--z-index:50--><!--z-index:51--><!--z-index:52--><!--z-index:53--><!--z-index:54--><!--z-index:55--><!--z-index:56--><!--z-index:57--><!--z-index:58--><!--z-index:59--><!--z-index:60--></g><g ></g><g ></g><g ></g></g></svg>